<?xml version="1.0" encoding="UTF-8" standalone="no"?>
<!-- Created with Inkscape (http://www.inkscape.org/) -->

<svg
   xmlns:dc="http://purl.org/dc/elements/1.1/"
   xmlns:cc="http://creativecommons.org/ns#"
   xmlns:rdf="http://www.w3.org/1999/02/22-rdf-syntax-ns#"
   xmlns:svg="http://www.w3.org/2000/svg"
   xmlns="http://www.w3.org/2000/svg"
   xmlns:xlink="http://www.w3.org/1999/xlink"
   xmlns:sodipodi="http://sodipodi.sourceforge.net/DTD/sodipodi-0.dtd"
   xmlns:inkscape="http://www.inkscape.org/namespaces/inkscape"
   width="342.96201"
   height="454.97427"
   id="svg3090"
   version="1.1"
   inkscape:version="0.48.5 r10040"
   sodipodi:docname="logo.svg">
  <defs
     id="defs3092">
    <linearGradient
       id="linearGradient4294">
      <stop
         style="stop-color:#000000;stop-opacity:1;"
         offset="0"
         id="stop4296" />
      <stop
         id="stop4310"
         offset="1"
         style="stop-color:#000000;stop-opacity:0.49803922;" />
    </linearGradient>
    <linearGradient
       inkscape:collect="always"
       id="linearGradient4104">
      <stop
         style="stop-color:#999999;stop-opacity:1;"
         offset="0"
         id="stop4106" />
      <stop
         style="stop-color:#999999;stop-opacity:0;"
         offset="1"
         id="stop4108" />
    </linearGradient>
    <clipPath
       clipPathUnits="userSpaceOnUse"
       id="clipPath3164">
      <path
         sodipodi:type="arc"
         style="fill:#6c5353;stroke:#999999"
         id="path3166"
         sodipodi:cx="324.28571"
         sodipodi:cy="200.93361"
         sodipodi:rx="227.14285"
         sodipodi:ry="222.85715"
         d="m 551.42856,200.93361 a 227.14285,222.85715 0 1 1 -454.285707,0 227.14285,222.85715 0 1 1 454.285707,0 z" />
    </clipPath>
    <clipPath
       clipPathUnits="userSpaceOnUse"
       id="clipPath3170">
      <path
         style="fill:none;stroke:#000000;stroke-width:1px;stroke-linecap:butt;stroke-linejoin:miter;stroke-opacity:1"
         d="M 171.42857,26.647897 68.571429,263.79075 222.85714,380.93361 317.14286,415.21933 428.57143,232.36218 314.28571,29.50504 z"
         id="path3172"
         inkscape:connector-curvature="0" />
    </clipPath>
    <clipPath
       clipPathUnits="userSpaceOnUse"
       id="clipPath3203">
      <path
         style="fill:none;stroke:#000000;stroke-width:1px;stroke-linecap:butt;stroke-linejoin:miter;stroke-opacity:1"
         d="m 126.95926,19.838992 28.57143,222.857138 65.71428,82.85715 11.42857,-165.71429 c 0,0 145.71429,-54.28571 148.57143,-82.857139 2.85714,-28.57143 -74.28571,-85.714287 -88.57143,-85.714287 -14.28571,0 -165.71428,28.571428 -165.71428,28.571428 z"
         id="path3205"
         inkscape:connector-curvature="0" />
    </clipPath>
    <clipPath
       clipPathUnits="userSpaceOnUse"
       id="clipPath3207">
      <path
         style="fill:none;stroke:#000000;stroke-width:1px;stroke-linecap:butt;stroke-linejoin:miter;stroke-opacity:1"
         d="m 357.14286,60.933611 28.57143,222.857139 65.71428,82.85715 11.42857,-165.71429 c 0,0 145.71429,-54.28571 148.57143,-82.85714 2.85714,-28.57143 -74.28571,-85.714287 -88.57143,-85.714287 -14.28571,0 -165.71428,28.571428 -165.71428,28.571428 z"
         id="path3209"
         inkscape:connector-curvature="0" />
    </clipPath>
    <clipPath
       clipPathUnits="userSpaceOnUse"
       id="clipPath3285">
      <path
         style="fill:none;stroke:#000000;stroke-width:1px;stroke-linecap:butt;stroke-linejoin:miter;stroke-opacity:1"
         d="m 261.24497,191.26756 -45.71429,145.71429 105.71429,74.28571 22.85714,-108.57143 c 0,0 14.28572,-122.85714 -5.71428,-117.14285 -20,5.71428 -77.14286,5.71428 -77.14286,5.71428 z"
         id="path3287"
         inkscape:connector-curvature="0" />
    </clipPath>
    <linearGradient
       inkscape:collect="always"
       xlink:href="#linearGradient4104"
       id="linearGradient4110"
       x1="126.95926"
       y1="186.43454"
       x2="381.32233"
       y2="186.43454"
       gradientUnits="userSpaceOnUse" />
    <linearGradient
       inkscape:collect="always"
       xlink:href="#linearGradient4104"
       id="linearGradient4112"
       x1="215.53068"
       y1="298.31376"
       x2="349.04527"
       y2="298.31376"
       gradientUnits="userSpaceOnUse" />
    <linearGradient
       inkscape:collect="always"
       xlink:href="#linearGradient4104"
       id="linearGradient4114"
       x1="199.25"
       y1="535.39062"
       x2="208.59375"
       y2="535.39062"
       gradientUnits="userSpaceOnUse" />
    <linearGradient
       inkscape:collect="always"
       xlink:href="#linearGradient4104"
       id="linearGradient4116"
       x1="47.25"
       y1="661.95253"
       x2="221.85415"
       y2="661.95253"
       gradientUnits="userSpaceOnUse" />
    <linearGradient
       inkscape:collect="always"
       xlink:href="#linearGradient4104"
       id="linearGradient4118"
       x1="247.50928"
       y1="698.51302"
       x2="389.66689"
       y2="698.51302"
       gradientUnits="userSpaceOnUse" />
  </defs>
  <sodipodi:namedview
     id="base"
     pagecolor="#ffffff"
     bordercolor="#666666"
     borderopacity="1.0"
     inkscape:pageopacity="0.0"
     inkscape:pageshadow="2"
     inkscape:zoom="0.7"
     inkscape:cx="445.21636"
     inkscape:cy="156.103"
     inkscape:document-units="px"
     inkscape:current-layer="layer1"
     showgrid="false"
     inkscape:window-width="743"
     inkscape:window-height="825"
     inkscape:window-x="1015"
     inkscape:window-y="68"
     inkscape:window-maximized="0"
     fit-margin-top="0"
     fit-margin-left="0"
     fit-margin-right="0"
     fit-margin-bottom="0" />
  <metadata
     id="metadata3095">
    <rdf:RDF>
      <cc:Work
         rdf:about="">
        <dc:format>image/svg+xml</dc:format>
        <dc:type
           rdf:resource="http://purl.org/dc/dcmitype/StillImage" />
        <dc:title></dc:title>
      </cc:Work>
    </rdf:RDF>
  </metadata>
  <g
     inkscape:label="Layer 1"
     inkscape:groupmode="layer"
     id="layer1"
     transform="translate(-47.25,-321.99329)">
    <path
       style="fill:#666666;fill-opacity:1;stroke:url(#linearGradient4118);fill-rule:nonzero;opacity:1"
       d="m 259.27823,621.47969 c -2.2072,0.60163 -4.125,12.32427 -4.125,35.8125 0,18.33268 -2.17934,50.514 -4.84375,71.5 -2.6644,20.98472 -3.59264,40.14876 -2.0625,42.59375 4.28466,6.84634 25.75597,5.34095 69.3125,-4.875 49.31249,-11.5659 74.43678,-21.68412 71.9375,-28.96875 -2.17499,-6.33971 -35.63247,-6.88417 -70.0625,-1.125 -26.2831,4.39673 -28.16887,0.0489 -10.875,-25 13.72519,-19.88021 17.59399,-43.46116 7.375,-44.96875 -3.85821,-0.56922 -13.42398,7.69241 -21.25,18.375 -22.52558,30.74773 -27.61387,26.63755 -29.1875,-23.46875 -0.84648,-26.95228 -3.71726,-40.55685 -6.21875,-39.875 z"
       id="path3308"
       inkscape:connector-curvature="0" />
    <path
       style="fill:#666666;fill-opacity:1;stroke:url(#linearGradient4116);fill-rule:nonzero;opacity:1"
       d="m 204.53125,546.9375 c -1.62947,0.005 -3.34967,44.99763 -3.84375,100 -0.68685,76.46436 -2.35441,100.94584 -7.03125,104 -6.48468,4.23463 -85.32359,2.27006 -109,-2.71875 C 68.521063,744.81913 47.25,753.86564 47.25,764.125 c 0,5.56334 12.692007,7.23529 70.15625,9.28125 38.58201,1.37352 73.95471,2.93717 78.625,3.46875 4.67034,0.53158 12.76569,-1.28144 17.96875,-4.03125 8.38142,-4.42999 9.12275,-7.99749 6.53125,-31.1875 -1.60875,-14.39608 -3.81571,-51.11218 -4.90625,-81.59375 -2.35954,-65.95121 -6.99709,-113.1388 -11.09375,-113.125 z"
       id="path3300"
       inkscape:connector-curvature="0" />
    <path
       style="fill:#666666;fill-opacity:1;stroke:url(#linearGradient4114);fill-rule:nonzero;opacity:1"
       d="m 203.90625,528.46875 c -2.57213,0 -4.65625,3.09606 -4.65625,6.90625 0,3.8102 2.08412,6.9375 4.65625,6.9375 2.57214,0 4.6875,-3.1273 4.6875,-6.9375 0,-3.81019 -2.11536,-6.90625 -4.6875,-6.90625 z"
       id="path3068"
       inkscape:connector-curvature="0" />
    <path
       transform="matrix(0.99866641,0.05162746,-0.05162746,0.99866641,1.7843058,210.91603)"
       inkscape:connector-curvature="0"
       id="path3068-1"
       d="m 113.37346,670.37671 c -57.464243,-2.04596 -70.149122,-3.72568 -70.149122,-9.28902 0,-10.25936 21.277678,-19.30592 37.412865,-15.9063 23.676407,4.98881 102.517277,6.95903 109.001957,2.7244 4.67684,-3.05416 6.32806,-27.53455 7.01491,-103.99891 0.49408,-55.00237 2.23154,-100.00818 3.86101,-100.0128 4.09666,-0.0138 8.71836,47.19171 11.0779,113.14292 1.09054,30.48157 3.29907,67.19939 4.90782,81.59547 2.5915,23.19001 1.84633,26.74434 -6.53509,31.17433 -5.20306,2.74981 -13.28129,4.56531 -17.95163,4.03373 -4.67029,-0.53158 -40.05861,-2.0903 -78.64062,-3.46382 z m 159.11293,0 c -1.53014,-2.44499 -0.60211,-21.61466 2.06229,-42.59938 2.66441,-20.986 4.84436,-53.15468 4.84436,-71.48736 0,-50.10823 8.75134,-46.6731 10.34471,4.06061 1.57363,50.1063 6.68161,54.2093 29.20719,23.46157 7.82602,-10.68259 17.3858,-18.95718 21.24401,-18.38796 10.21899,1.50759 6.35018,25.10675 -7.37501,44.98696 -17.29387,25.04893 -15.40064,29.39809 10.88246,25.00136 34.43003,-5.75917 67.87723,-5.22898 70.05222,1.11073 2.49928,7.28463 -22.62898,17.40359 -71.94147,28.96949 -43.55653,10.21595 -65.0361,11.72894 -69.32076,4.8826 z m 6.90665,-164.40105 c 0,-3.96011 2.10448,-5.91573 4.67661,-4.34584 2.57213,1.5699 4.67661,4.81 4.67661,7.20021 0,2.39022 -2.10448,4.34584 -4.67661,4.34584 -2.57213,0 -4.67661,-3.2401 -4.67661,-7.20021 z m 0.36899,-17.81624 c -0.20297,-4.8686 0.90225,-7.59638 2.45624,-6.06172 1.55399,1.5347 1.72015,5.51808 0.36946,8.85203 -1.49287,3.68425 -2.60104,2.58992 -2.82542,-2.79031 z m -5.04583,-37.33226 c 0,-3.81019 2.10447,-6.92763 4.67661,-6.92763 2.57213,0 4.67661,3.11744 4.67661,6.92763 0,3.8102 -2.10448,6.92763 -4.67661,6.92763 -2.57214,0 -4.67661,-3.11743 -4.67661,-6.92763 z m -79.50234,-18.47368 c 0,-3.81019 2.10448,-6.92762 4.67661,-6.92762 2.57214,0 4.67661,3.11743 4.67661,6.92762 0,3.8102 -2.10447,6.92763 -4.67661,6.92763 -2.57213,0 -4.67661,-3.11743 -4.67661,-6.92763 z m 74.82573,-64.65787 c 0,-3.81019 2.10448,-6.92763 4.67661,-6.92763 2.57213,0 4.67661,3.11744 4.67661,6.92763 0,3.8102 -2.10448,6.92763 -4.67661,6.92763 -2.57213,0 -4.67661,-3.11743 -4.67661,-6.92763 z m 2.52967,-63.50322 c -1.66356,-13.33569 -3.96179,-29.44243 -5.10713,-35.79275 -2.35977,-13.08311 3.92432,-25.66955 10.73941,-21.51001 9.69222,5.91559 10.71177,81.54946 1.09933,81.54946 -2.03882,0 -5.06804,-10.91101 -6.73161,-24.2467 z m -82.03201,-42.72038 c 0,-3.8102 2.10448,-6.92763 4.67661,-6.92763 2.57214,0 4.67661,3.11743 4.67661,6.92763 0,3.81019 -2.10447,6.92763 -4.67661,6.92763 -2.57213,0 -4.67661,-3.11744 -4.67661,-6.92763 z m 0,-25.40131 c 0,-2.54013 2.10448,-4.61842 4.67661,-4.61842 2.57214,0 4.67661,2.07829 4.67661,4.61842 0,2.54013 -2.10447,4.61842 -4.67661,4.61842 -2.57213,0 -4.67661,-2.07829 -4.67661,-4.61842 z m -1.25506,-42.72038 c -1.28952,-15.87582 -4.96828,-51.37867 -8.17494,-78.89521 -4.93541,-42.350955 -4.82149,-51.026333 0.74222,-56.520821 8.50755,-8.401688 45.12071,-13.294768 67.90066,-9.074358 16.72135,3.097892 17.2708,3.709879 8.81423,9.816538 -4.96038,3.582 -16.77686,6.512711 -26.25882,6.512711 -25.72425,0 -29.96495,8.211503 -30.77788,59.59706 -0.38535,24.37454 -0.91171,56.26754 -1.16915,70.87329 -0.62517,35.47214 -8.13454,33.90654 -11.07632,-2.30921 z"
       style="fill:#666666;fill-opacity:1;fill-rule:nonzero;stroke:url(#linearGradient4112)"
       clip-path="url(#clipPath3285)"
       inkscape:transform-center-x="-10.763379"
       inkscape:transform-center-y="1.9899416" />
    <path
       transform="translate(-224.32439,130.54731)"
       inkscape:connector-curvature="0"
       style="fill:#b1b1b1"
       d="m 199.875,425.4375 c -2.57213,0 -4.65625,3.09606 -4.65625,6.90625 0,3.8102 2.08412,6.9375 4.65625,6.9375 2.57214,0 4.6875,-3.1273 4.6875,-6.9375 0,-3.81019 -2.11536,-6.90625 -4.6875,-6.90625 z m 0.625,18.46875 c -1.62947,0.005 -3.34967,44.99763 -3.84375,100 -0.68685,76.46436 -2.35441,100.94584 -7.03125,104 -6.48468,4.23463 -85.32359,2.27006 -109,-2.71875 -16.135187,-3.39962 -37.40625,5.64689 -37.40625,15.90625 0,5.56334 12.692007,7.23529 70.15625,9.28125 38.58201,1.37352 73.95471,2.93717 78.625,3.46875 4.67034,0.53158 12.76569,-1.28144 17.96875,-4.03125 8.38142,-4.42999 9.12275,-7.99749 6.53125,-31.1875 -1.60875,-14.39608 -3.81571,-51.11218 -4.90625,-81.59375 -2.35954,-65.95121 -6.99709,-113.1388 -11.09375,-113.125 z m 78.90625,0 c -2.57214,0 -4.6875,3.09606 -4.6875,6.90625 0,3.8102 2.11536,6.9375 4.6875,6.9375 2.57213,0 4.65625,-3.1273 4.65625,-6.9375 0,-3.81019 -2.08412,-6.90625 -4.65625,-6.90625 z m 2,37.75 c -1.10133,-0.009 -1.82116,2.54426 -1.65625,6.5 0.22438,5.38023 1.35088,6.4655 2.84375,2.78125 1.35069,-3.33395 1.17899,-7.30905 -0.375,-8.84375 -0.29137,-0.28775 -0.55835,-0.43547 -0.8125,-0.4375 z m 0.84375,19.4375 c -1.677,0.0734 -2.84375,1.90492 -2.84375,4.875 0,3.96011 2.08412,7.21875 4.65625,7.21875 2.57213,0 4.6875,-1.95353 4.6875,-4.34375 0,-2.39021 -2.11537,-5.64885 -4.6875,-7.21875 -0.64303,-0.39247 -1.2535,-0.5557 -1.8125,-0.53125 z m 1.28125,19.375 c -2.2072,0.60163 -4.125,12.32427 -4.125,35.8125 0,18.33268 -2.17934,50.514 -4.84375,71.5 -2.6644,20.98472 -3.59264,40.14876 -2.0625,42.59375 4.28466,6.84634 25.75597,5.34095 69.3125,-4.875 49.31249,-11.5659 74.43678,-21.68412 71.9375,-28.96875 -2.17499,-6.33971 -35.63247,-6.88417 -70.0625,-1.125 -26.2831,4.39673 -28.16887,0.0489 -10.875,-25 13.72519,-19.88021 17.59399,-43.46116 7.375,-44.96875 -3.85821,-0.56922 -13.42398,7.69241 -21.25,18.375 -22.52558,30.74773 -27.61387,26.63755 -29.1875,-23.46875 -0.84648,-26.95228 -3.71726,-40.55685 -6.21875,-39.875 z"
       id="path3068-0"
       clip-path="url(#clipPath3207)" />
    <path
       transform="translate(8.8896647,274.67748)"
       inkscape:connector-curvature="0"
       id="path3068-1-9"
       d="m 113.37346,670.37671 c -57.464243,-2.04596 -70.149122,-3.72568 -70.149122,-9.28902 0,-10.25936 21.277678,-19.30592 37.412865,-15.9063 23.676407,4.98881 102.517277,6.95903 109.001957,2.7244 4.67684,-3.05416 6.32806,-27.53455 7.01491,-103.99891 0.49408,-55.00237 2.23154,-100.00818 3.86101,-100.0128 4.09666,-0.0138 8.71836,47.19171 11.0779,113.14292 1.09054,30.48157 3.29907,67.19939 4.90782,81.59547 2.5915,23.19001 1.84633,26.74434 -6.53509,31.17433 -5.20306,2.74981 -13.28129,4.56531 -17.95163,4.03373 -4.67029,-0.53158 -40.05861,-2.0903 -78.64062,-3.46382 z m 159.11293,0 c -1.53014,-2.44499 -0.60211,-21.61466 2.06229,-42.59938 2.66441,-20.986 4.84436,-53.15468 4.84436,-71.48736 0,-50.10823 8.75134,-46.6731 10.34471,4.06061 1.57363,50.1063 6.68161,54.2093 29.20719,23.46157 7.82602,-10.68259 17.3858,-18.95718 21.24401,-18.38796 10.21899,1.50759 6.35018,25.10675 -7.37501,44.98696 -17.29387,25.04893 -15.40064,29.39809 10.88246,25.00136 34.43003,-5.75917 67.87723,-5.22898 70.05222,1.11073 2.49928,7.28463 -22.62898,17.40359 -71.94147,28.96949 -43.55653,10.21595 -65.0361,11.72894 -69.32076,4.8826 z m 6.90665,-164.40105 c 0,-3.96011 2.10448,-5.91573 4.67661,-4.34584 2.57213,1.5699 4.67661,4.81 4.67661,7.20021 0,2.39022 -2.10448,4.34584 -4.67661,4.34584 -2.57213,0 -4.67661,-3.2401 -4.67661,-7.20021 z m 0.36899,-17.81624 c -0.20297,-4.8686 0.90225,-7.59638 2.45624,-6.06172 1.55399,1.5347 1.72015,5.51808 0.36946,8.85203 -1.49287,3.68425 -2.60104,2.58992 -2.82542,-2.79031 z m -5.04583,-37.33226 c 0,-3.81019 2.10447,-6.92763 4.67661,-6.92763 2.57213,0 4.67661,3.11744 4.67661,6.92763 0,3.8102 -2.10448,6.92763 -4.67661,6.92763 -2.57214,0 -4.67661,-3.11743 -4.67661,-6.92763 z m -79.50234,-18.47368 c 0,-3.81019 2.10448,-6.92762 4.67661,-6.92762 2.57214,0 4.67661,3.11743 4.67661,6.92762 0,3.8102 -2.10447,6.92763 -4.67661,6.92763 -2.57213,0 -4.67661,-3.11743 -4.67661,-6.92763 z m 74.82573,-64.65787 c 0,-3.81019 2.10448,-6.92763 4.67661,-6.92763 2.57213,0 4.67661,3.11744 4.67661,6.92763 0,3.8102 -2.10448,6.92763 -4.67661,6.92763 -2.57213,0 -4.67661,-3.11743 -4.67661,-6.92763 z m 2.52967,-63.50322 c -1.66356,-13.33569 -3.96179,-29.44243 -5.10713,-35.79275 -2.35977,-13.08311 3.92432,-25.66955 10.73941,-21.51001 9.69222,5.91559 10.71177,81.54946 1.09933,81.54946 -2.03882,0 -5.06804,-10.91101 -6.73161,-24.2467 z m -82.03201,-42.72038 c 0,-3.8102 2.10448,-6.92763 4.67661,-6.92763 2.57214,0 4.67661,3.11743 4.67661,6.92763 0,3.81019 -2.10447,6.92763 -4.67661,6.92763 -2.57213,0 -4.67661,-3.11744 -4.67661,-6.92763 z m 0,-25.40131 c 0,-2.54013 2.10448,-4.61842 4.67661,-4.61842 2.57214,0 4.67661,2.07829 4.67661,4.61842 0,2.54013 -2.10447,4.61842 -4.67661,4.61842 -2.57213,0 -4.67661,-2.07829 -4.67661,-4.61842 z m -1.25506,-42.72038 c -1.28952,-15.87582 -4.96828,-51.37867 -8.17494,-78.89521 -4.93541,-42.350955 -4.82149,-51.026333 0.74222,-56.520821 8.50755,-8.401688 45.12071,-13.294768 67.90066,-9.074358 16.72135,3.097892 17.2708,3.709879 8.81423,9.816538 -4.96038,3.582 -16.77686,6.512711 -26.25882,6.512711 -25.72425,0 -29.96495,8.211503 -30.77788,59.59706 -0.38535,24.37454 -0.91171,56.26754 -1.16915,70.87329 -0.62517,35.47214 -8.13454,33.90654 -11.07632,-2.30921 z"
       style="fill:#666666;fill-opacity:1;stroke:url(#linearGradient4110);fill-rule:nonzero;opacity:1"
       clip-path="url(#clipPath3203)" />
  </g>
</svg>
